<svg id="Componente_5_9" data-name="Componente 5 – 9" xmlns="http://www.w3.org/2000/svg" width="69.278" height="72" viewBox="0 0 69.278 72">
  <path id="Caminho_8268" data-name="Caminho 8268" d="M0,0H69.278V72H0V0Z" fill="#33c807"/>
  <g id="whatsapp-logo" transform="translate(15 16)">
    <path id="WhatsApp" d="M39.393,19.189a19.37,19.37,0,0,1-28.686,16.8L0,39.393,3.491,29.1A18.987,18.987,0,0,1,.716,19.189a19.339,19.339,0,0,1,38.677,0ZM20.054,3.056A16.214,16.214,0,0,0,3.8,19.189a15.963,15.963,0,0,0,3.1,9.459L4.861,34.639l6.248-1.986a16.275,16.275,0,0,0,25.2-13.464A16.216,16.216,0,0,0,20.054,3.056ZM29.82,23.608c-.119-.2-.435-.314-.909-.549s-2.806-1.373-3.239-1.53-.752-.235-1.067.235-1.224,1.53-1.5,1.844-.553.354-1.027.119a12.975,12.975,0,0,1-3.811-2.334,14.181,14.181,0,0,1-2.637-3.257c-.276-.471-.029-.725.208-.959.214-.211.474-.549.711-.824a3.153,3.153,0,0,0,.474-.785.857.857,0,0,0-.039-.824c-.118-.235-1.067-2.55-1.462-3.491s-.789-.784-1.066-.784-.593-.039-.909-.039a1.749,1.749,0,0,0-1.265.588,5.26,5.26,0,0,0-1.658,3.923A9.1,9.1,0,0,0,12.557,19.8c.237.313,3.278,5.217,8.1,7.1s4.819,1.254,5.689,1.176a4.8,4.8,0,0,0,3.2-2.235A3.921,3.921,0,0,0,29.82,23.608Z" fill="#fff"/>
  </g>
</svg>
