<svg id="Grupo_9329" data-name="Grupo 9329" xmlns="http://www.w3.org/2000/svg" width="77.552" height="81.388" viewBox="0 0 77.552 81.388">
  <g id="Grupo_5" data-name="Grupo 5">
    <path id="Caminho_34" data-name="Caminho 34" d="M1288.071,1465.853h-5.794v-49.424a2.083,2.083,0,0,0-2.081-2.081h-7.091a2.084,2.084,0,0,0-2.082,2.081v6.171a1.192,1.192,0,0,0,2.384,0v-5.867h6.485v49.121h-6.485v-37.706a1.192,1.192,0,0,0-2.384,0v37.706h-5.455v-36.365a2.084,2.084,0,0,0-2.082-2.081h-7.09a2.084,2.084,0,0,0-2.082,2.081v36.365h-5.455v-23.239a2.084,2.084,0,0,0-2.082-2.082h-7.091a2.084,2.084,0,0,0-2.082,2.082v23.239h-5.455v-10.146a2.084,2.084,0,0,0-2.082-2.082h-7.09a2.084,2.084,0,0,0-2.082,2.082v2.451a1.192,1.192,0,1,0,2.384,0v-2.149h6.485v9.844h-6.485V1463.7a1.192,1.192,0,0,0-2.384,0v2.149H1215.1a2.226,2.226,0,0,0-2.224,2.224v3.741a2.226,2.226,0,0,0,2.224,2.224h72.969a2.226,2.226,0,0,0,2.224-2.224v-3.741a2.226,2.226,0,0,0-2.224-2.224Zm-31.372-36.062h6.485v36.062H1256.7Zm-16.71,13.126h6.486v22.936h-6.486Zm47.922,28.741h-72.648v-3.421h72.648Zm0,0" transform="translate(-1212.743 -1392.654)" fill="#fff"/>
    <path id="Caminho_35" data-name="Caminho 35" d="M1216.111,1440.962a3.355,3.355,0,0,0,1.123-.194,92.4,92.4,0,0,0,17.644-8.784,133.044,133.044,0,0,0,19.789-15.237,158.8,158.8,0,0,0,14.349-15.229l1.959,3.352a1.675,1.675,0,0,0,3.122-.8l.384-14.4a1.676,1.676,0,0,0-2.414-1.548h0l-12.925,6.365a1.675,1.675,0,0,0,.576,3.17l3.4.335a151.339,151.339,0,0,1-13,13.717,126.369,126.369,0,0,1-18.732,14.455,86.838,86.838,0,0,1-16.408,8.213,3.39,3.39,0,0,0,1.134,6.587Zm-.914-3.817a1,1,0,0,1,.577-.522,89.343,89.343,0,0,0,16.876-8.44,128.853,128.853,0,0,0,19.088-14.727,155.151,155.151,0,0,0,14.653-15.68,1.192,1.192,0,0,0-.807-1.941l-3.159-.311,9.642-4.748-.288,10.744-1.568-2.686a1.193,1.193,0,0,0-1.956-.15A157.39,157.39,0,0,1,1253.046,1415a130.773,130.773,0,0,1-19.431,14.965,90.033,90.033,0,0,1-17.177,8.558,1.006,1.006,0,0,1-1.278-.6.994.994,0,0,1,.037-.771Zm0,0" transform="translate(-1212.713 -1387.945)" fill="#c8ac78"/>
  </g>
</svg>
