<svg xmlns="http://www.w3.org/2000/svg" width="18.849" height="15.129" viewBox="0 0 18.849 15.129">
  <g id="Grupo_9362" data-name="Grupo 9362" transform="translate(-1596 -66)">
    <g id="hamburger_menu" data-name="hamburger menu" transform="translate(1579.159 5)">
      <path id="Caminho_8277" data-name="Caminho 8277" d="M136.685,61H122.164a1.786,1.786,0,1,0,0,3.491h14.521a1.786,1.786,0,1,0,0-3.491Z" transform="translate(-103.159)" fill="#fff"/>
      <path id="Caminho_8278" data-name="Caminho 8278" d="M136.685,211H122.164a1.786,1.786,0,1,0,0,3.491h14.521a1.786,1.786,0,1,0,0-3.491Z" transform="translate(-103.159 -144.181)" fill="#fff"/>
      <path id="Caminho_8279" data-name="Caminho 8279" d="M136.685,361H122.164a1.786,1.786,0,1,0,0,3.491h14.521a1.786,1.786,0,1,0,0-3.491Z" transform="translate(-103.159 -288.362)" fill="#fff"/>
    </g>
  </g>
</svg>
