<svg id="Grupo_9331" data-name="Grupo 9331" xmlns="http://www.w3.org/2000/svg" width="77.547" height="56.928" viewBox="0 0 77.547 56.928">
  <g id="Grupo_8" data-name="Grupo 8" transform="translate(0 0)">
    <path id="Caminho_37" data-name="Caminho 37" d="M1713.873,1444.975a1.367,1.367,0,0,0,1.222-2.445c-3.174-1.587-9.125-1.6-9.376-1.6a1.367,1.367,0,1,0,0,2.733C1707.253,1443.658,1711.712,1443.894,1713.873,1444.975Z" transform="translate(-1648.417 -1416.955)" fill="#fff"/>
    <path id="Caminho_38" data-name="Caminho 38" d="M1697.122,1449.573l-4.691-1.34a.477.477,0,0,1-.344-.457v-1.566a8.571,8.571,0,0,0,1.086-.89,8.358,8.358,0,0,0,2.558-6.046v-2.161l.454-.907a7.249,7.249,0,0,0,.761-3.224v-5.853a1.136,1.136,0,0,0-1.136-1.136h-10.931a7.218,7.218,0,0,0-7.209,7.209v.068a6.023,6.023,0,0,0,.633,2.68l.582,1.164v1.855a8.863,8.863,0,0,0,3.643,7.166v1.641c0,.253,0,.357-.938.626l-2.289.654-6.622-2.408a1.134,1.134,0,0,0-.31-.87l-2.116-2.223v-3.732c.224-.185.445-.374.658-.574a13.331,13.331,0,0,0,4.2-9.691v-2.981a13.134,13.134,0,0,0,1.214-5.521V1408.91a1.136,1.136,0,0,0-1.136-1.136h-17a10.865,10.865,0,0,0-10.853,10.853v2.429a13.134,13.134,0,0,0,1.215,5.522v2.564a13.882,13.882,0,0,0,4.858,10.594v3.82l-2.116,2.223a1.133,1.133,0,0,0-.309.87l-6.989,2.541a5.958,5.958,0,0,0-1.4.736l-1.1-.549a8.675,8.675,0,0,0,4.351-3.521,1.137,1.137,0,0,0,0-1.016c-.819-1.638-.918-4.64-1-7.052-.026-.8-.051-1.561-.1-2.237-.387-5.449-4.529-9.558-9.635-9.558s-9.248,4.109-9.635,9.558c-.048.676-.073,1.434-.1,2.237-.08,2.412-.179,5.414-1,7.052a1.135,1.135,0,0,0,0,1.016,8.675,8.675,0,0,0,4.356,3.519l-3.048,1.524a4.754,4.754,0,0,0-2.642,4.275v8.392a1.136,1.136,0,1,0,2.272,0v-8.392a2.5,2.5,0,0,1,1.386-2.243l3.8-1.9,1.32,1.255a4.779,4.779,0,0,0,6.585,0l1.321-1.255,1.238.619a5.973,5.973,0,0,0-.914,3.171v8.743a1.136,1.136,0,0,0,2.271,0v-8.743a3.734,3.734,0,0,1,2.45-3.5l7.369-2.68,3.067,4.6a2.34,2.34,0,0,0,1.724,1.035c.078.007.156.011.234.011a2.339,2.339,0,0,0,1.659-.688l1.872-1.871v11.832a1.136,1.136,0,0,0,2.272,0v-11.832l1.871,1.871a2.341,2.341,0,0,0,1.66.689,2.284,2.284,0,0,0,.234-.012,2.34,2.34,0,0,0,1.724-1.035l3.068-4.6,7.369,2.679a3.735,3.735,0,0,1,2.45,3.5v8.743a1.136,1.136,0,0,0,2.271,0v-8.743a6.005,6.005,0,0,0-1.68-4.156l.281-.08a6.194,6.194,0,0,0,1.057-.382l2.9,2.9v10.461a1.136,1.136,0,0,0,2.271,0v-10.461l2.88-2.88a2.712,2.712,0,0,0,.484.192l4.691,1.34a2.518,2.518,0,0,1,1.82,2.411v9.4a1.136,1.136,0,0,0,2.271,0v-9.4A4.8,4.8,0,0,0,1697.122,1449.573Zm-57.233-2v-1.355a8.4,8.4,0,0,0,3-3.7,12.511,12.511,0,0,0,.647,2.714A8.208,8.208,0,0,1,1639.889,1447.57Zm-12.148-11.859a8.431,8.431,0,0,1,2.3-5.3,7.057,7.057,0,0,1,10.145,0,8.431,8.431,0,0,1,2.3,5.3c.046.632.07,1.37.1,2.151l.007.2a10.208,10.208,0,0,0-5.612-4.1,14.291,14.291,0,0,0-4.32-.685,1.14,1.14,0,0,0-.786.347l-2.05,2.126a1.136,1.136,0,0,0,1.636,1.577l1.705-1.769c1.469.072,6.194.621,8.031,4.668a6.151,6.151,0,0,1-12.227-.956,1.13,1.13,0,0,0-1.323-1.119c0-.1.007-.2.01-.292C1627.671,1437.082,1627.7,1436.344,1627.74,1435.711Zm-1.057,9.515a12.515,12.515,0,0,0,.648-2.72,8.475,8.475,0,0,0,3,3.7v1.361A8.171,8.171,0,0,1,1626.684,1445.226Zm6.7,5.414-1.057-1a2.353,2.353,0,0,0,.276-1.109v-1.21a8.454,8.454,0,0,0,5.016,0v1.21a2.346,2.346,0,0,0,.276,1.11l-1.057,1A2.506,2.506,0,0,1,1633.382,1450.64Zm17.438-21.5v-2.818a1.129,1.129,0,0,0-.113-.494,10.9,10.9,0,0,1-1.1-4.774v-2.429a8.59,8.59,0,0,1,8.581-8.58h15.868v11.009a10.9,10.9,0,0,1-1.1,4.774,1.139,1.139,0,0,0-.113.494v3.234a10.909,10.909,0,0,1-3.482,8.035q-.421.393-.872.738l-.02.015a10.924,10.924,0,0,1-7.37,2.2A11.251,11.251,0,0,1,1650.82,1429.142Zm10.128,13.669c.3.019.6.029.894.029a13.158,13.158,0,0,0,6.14-1.5v2.074l-6.151,4.205-6.152-4.205v-2.12A12.8,12.8,0,0,0,1660.948,1442.811Zm-3.732,9.187a.079.079,0,0,1-.121-.012l-3.532-5.3,1.136-1.195,5.359,3.664Zm9.349-.012a.074.074,0,0,1-.058.034.069.069,0,0,1-.064-.023l-2.842-2.842,5.359-3.663,1.137,1.194Zm14.59-13.018v-2.124a1.129,1.129,0,0,0-.12-.508l-.7-1.4a3.741,3.741,0,0,1-.393-1.665v-.068a4.942,4.942,0,0,1,4.937-4.937h9.8v4.718a4.967,4.967,0,0,1-.521,2.208l-.574,1.147a1.129,1.129,0,0,0-.12.508v2.429a6.151,6.151,0,0,1-6.341,6.149A6.359,6.359,0,0,1,1681.155,1438.969Zm5.894,8.726c.087,0,.175,0,.262,0a8.439,8.439,0,0,0,2.5-.379v.457a2.731,2.731,0,0,0,.082.662l-2.59,2.589-2.578-2.578a3.084,3.084,0,0,0,.07-.675v-.479A7.965,7.965,0,0,0,1687.049,1447.694Z" transform="translate(-1623.042 -1407.774)" fill="#fff"/>
    <path id="Caminho_39" data-name="Caminho 39" d="M1720.635,1472.419a1.366,1.366,0,0,0-1.366,1.366v8.766a1.367,1.367,0,1,0,2.733,0v-8.766A1.366,1.366,0,0,0,1720.635,1472.419Z" transform="translate(-1650.187 -1426.99)" fill="#c8ac78"/>
    <path id="Caminho_40" data-name="Caminho 40" d="M1665.684,1425.195a.09.09,0,0,1,.071-.093,43.154,43.154,0,0,1,8.876-.434c4.262.284,7.348,1.353,9.173,3.179a1.366,1.366,0,0,0,1.933-1.932c-5.169-5.168-15.981-4.18-20.39-3.516a2.806,2.806,0,0,0-2.4,2.795v3.148a1.367,1.367,0,0,0,2.733,0v-3.148Z" transform="translate(-1635.67 -1411.809)" fill="#c8ac78"/>
  </g>
  <path id="Caminho_41" data-name="Caminho 41" d="M1694.154,1475.734a1.366,1.366,0,0,0-1.366,1.366v5.844a1.366,1.366,0,1,0,2.732,0V1477.1A1.366,1.366,0,0,0,1694.154,1475.734Z" transform="translate(-1641.995 -1427.383)" fill="#c8ac78"/>
</svg>
