<svg width="64" height="64" viewBox="0 0 64 64" fill="none" xmlns="http://www.w3.org/2000/svg">
<g clip-path="url(#clip0)">
<path d="M54.0213 41.149C54.2879 41.2699 54.5934 41.286 54.8723 41.1937C55.1511 41.1014 55.3811 40.9081 55.513 40.6554C55.6449 40.4026 55.6681 40.1104 55.5778 39.8414C55.4875 39.5724 55.2907 39.3481 55.0297 39.2164C52.4102 37.9619 47.4988 37.9516 47.2917 37.9516C47.141 37.9477 46.991 37.9727 46.8506 38.0252C46.7102 38.0778 46.5822 38.1567 46.4742 38.2574C46.3662 38.3581 46.2804 38.4785 46.2218 38.6115C46.1631 38.7445 46.133 38.8874 46.133 39.0318C46.133 39.1761 46.1631 39.319 46.2218 39.452C46.2804 39.585 46.3662 39.7054 46.4742 39.8061C46.5822 39.9068 46.7102 39.9858 46.8506 40.0383C46.991 40.0908 47.141 40.1158 47.2917 40.1119C48.5577 40.108 52.2378 40.2945 54.0213 41.149Z" fill="white"/>
<path d="M61.1386 52.041L57.2672 50.9817C57.1855 50.959 57.1136 50.9115 57.0624 50.8464C57.0112 50.7812 56.9835 50.702 56.9833 50.6205V49.3826C57.3016 49.1719 57.6014 48.9366 57.8795 48.679C58.55 48.0601 59.0827 47.3177 59.4455 46.4964C59.8083 45.675 59.9938 44.7918 59.9906 43.8999V42.1917L60.3654 41.4748C60.7773 40.6831 60.9923 39.8108 60.9935 38.9263V34.2996C60.9935 34.0615 60.8947 33.833 60.7188 33.6646C60.543 33.4962 60.3046 33.4017 60.0559 33.4017H51.0345C49.4572 33.4035 47.9449 34.0045 46.8296 35.0727C45.7142 36.141 45.0868 37.5894 45.0849 39.1002V39.1539C45.0859 39.8892 45.2646 40.6143 45.6072 41.2723L46.0876 42.1925V43.6588C46.0872 44.7631 46.3593 45.8519 46.8818 46.8363C47.4043 47.8207 48.1623 48.6729 49.0941 49.3233V50.6205C49.0941 50.8205 49.0941 50.9027 48.32 51.1153L46.4309 51.6323L40.9657 49.7288C40.9758 49.6034 40.9583 49.4774 40.9142 49.3589C40.8701 49.2404 40.8005 49.1321 40.7099 49.0411L38.9636 47.2839V44.3339C39.1485 44.1876 39.3308 44.0382 39.5066 43.8801C40.5987 42.8968 41.4696 41.71 42.0656 40.3927C42.6617 39.0754 42.9704 37.6553 42.9728 36.2196V33.8633C43.6336 32.4954 43.9755 31.0062 43.9748 29.4991V19.898C43.9748 19.6599 43.8761 19.4314 43.7002 19.263C43.5244 19.0946 43.2859 19 43.0372 19H29.007C26.6323 19.0026 24.3556 19.9072 22.6764 21.5155C20.9972 23.1239 20.0527 25.3044 20.0501 27.579V29.4991C20.0495 31.0066 20.3916 32.496 21.0528 33.864V35.8908C21.0474 37.4816 21.4031 39.0545 22.0954 40.5005C22.7877 41.9465 23.8 43.231 25.0621 44.2651V47.2847L23.3157 49.0419C23.2252 49.133 23.1557 49.2413 23.1118 49.3598C23.0679 49.4783 23.0504 49.6043 23.0607 49.7297L17.2927 51.7382C16.8822 51.882 16.4936 52.0778 16.1372 52.32L15.2294 51.886C16.7145 51.3637 17.9772 50.385 18.8203 49.1027C18.8853 48.978 18.9192 48.8406 18.9192 48.7012C18.9192 48.5618 18.8853 48.4243 18.8203 48.2996C18.1443 47.0048 18.0626 44.6318 17.9949 42.7252C17.9735 42.0928 17.9529 41.4913 17.9124 40.957C17.593 36.6497 14.1746 33.4017 9.96061 33.4017C5.74659 33.4017 2.32817 36.6497 2.00878 40.957C1.96916 41.4913 1.94855 42.0905 1.92627 42.7252C1.86024 44.6318 1.77854 47.0048 1.10096 48.2996C1.03581 48.4243 1.00193 48.5618 1.00193 48.7012C1.00193 48.8406 1.03581 48.9781 1.10096 49.1027C1.94531 50.3851 3.20961 51.3633 4.69606 51.8844L2.18045 53.0892C1.52368 53.4011 0.971339 53.8829 0.585949 54.4802C0.200559 55.0775 -0.0024348 55.7662 1.42718e-05 56.4684V63.1021C1.42718e-05 63.3402 0.0988218 63.5686 0.274646 63.737C0.45047 63.9054 0.688898 64 0.937551 64C1.1862 64 1.42473 63.9054 1.60056 63.737C1.77638 63.5686 1.87509 63.3402 1.87509 63.1021V56.4684C1.87433 56.1001 1.98105 55.739 2.18317 55.4257C2.38528 55.1125 2.67474 54.8595 3.01895 54.6954L6.15515 53.1935L7.24451 54.1855C7.97761 54.8529 8.95048 55.2251 9.96192 55.2251C10.9734 55.2251 11.9461 54.8529 12.6792 54.1855L13.7694 53.1935L14.7911 53.6828C14.2989 54.4339 14.0375 55.3026 14.0369 56.1894V63.1004C14.0441 63.3339 14.146 63.5555 14.321 63.7182C14.4959 63.8808 14.7302 63.9718 14.974 63.9718C15.2178 63.9718 15.4521 63.8808 15.627 63.7182C15.802 63.5555 15.9039 63.3339 15.9111 63.1004V56.1894C15.9122 55.5855 16.1066 54.9965 16.4682 54.5017C16.8297 54.007 17.341 53.6304 17.9331 53.4227L24.0148 51.3042L26.546 54.9404C26.7048 55.1695 26.9148 55.3618 27.161 55.5033C27.4071 55.6448 27.6831 55.732 27.9688 55.7585C28.0332 55.7641 28.0976 55.7672 28.162 55.7672C28.4163 55.7675 28.6682 55.7195 28.9032 55.6262C29.1381 55.5328 29.3515 55.396 29.5311 55.2234L31.0761 53.7444V63.0973C31.0761 63.3355 31.1748 63.5639 31.3507 63.7323C31.5265 63.9007 31.765 63.9953 32.0137 63.9953C32.2623 63.9953 32.5007 63.9007 32.6766 63.7323C32.8524 63.5639 32.9512 63.3355 32.9512 63.0973V53.7444L34.4953 55.2234C34.675 55.3961 34.8885 55.5332 35.1236 55.6266C35.3587 55.7201 35.6108 55.7681 35.8654 55.768C35.9299 55.768 35.9943 55.7649 36.0585 55.7585C36.3442 55.732 36.6201 55.6448 36.8663 55.5033C37.1124 55.3618 37.3226 55.1695 37.4813 54.9404L40.0133 51.3042L46.095 53.4219C46.687 53.6296 47.1982 54.0062 47.5598 54.501C47.9213 54.9957 48.1158 55.5847 48.117 56.1885V63.0997C48.1242 63.3331 48.2261 63.5546 48.4011 63.7173C48.5761 63.88 48.8103 63.971 49.0541 63.971C49.298 63.971 49.5322 63.88 49.7072 63.7173C49.8821 63.5546 49.984 63.3331 49.9913 63.0997V56.1885C49.9892 54.9631 49.4924 53.7859 48.6048 52.9033L48.8366 52.8401C49.1364 52.765 49.4284 52.6639 49.709 52.5382L52.1024 54.8306V63.0997C52.1096 63.3331 52.2115 63.5546 52.3865 63.7173C52.5614 63.88 52.7957 63.971 53.0395 63.971C53.2834 63.971 53.5176 63.88 53.6925 63.7173C53.8675 63.5546 53.9694 63.3331 53.9767 63.0997V54.8306L56.3535 52.554C56.4813 52.6168 56.6151 52.6675 56.753 52.7057L60.6245 53.765C61.0564 53.8843 61.4362 54.1346 61.707 54.4782C61.9779 54.8218 62.1251 55.2403 62.1265 55.6708V63.1012C62.1338 63.3346 62.2357 63.5563 62.4106 63.7189C62.5856 63.8816 62.8198 63.9726 63.0637 63.9726C63.3075 63.9726 63.5418 63.8816 63.7167 63.7189C63.8917 63.5563 63.9936 63.3346 64.0008 63.1012V55.6708C63.9973 54.8508 63.7166 54.054 63.2006 53.3996C62.6846 52.7452 61.9612 52.2685 61.1386 52.041V52.041ZM13.904 50.46V49.3889C15.0066 48.6633 15.8665 47.6474 16.3799 46.4641C16.4738 47.1961 16.6529 47.9158 16.9138 48.6096C16.1015 49.4726 15.062 50.1108 13.904 50.4576V50.46ZM3.87811 41.0858C3.97592 39.5187 4.64819 38.035 5.77635 36.8963C6.31945 36.3584 6.9699 35.9308 7.6891 35.6388C8.4083 35.3467 9.18155 35.1961 9.96272 35.1961C10.7439 35.1961 11.517 35.3467 12.2362 35.6388C12.9554 35.9308 13.606 36.3584 14.1491 36.8963C15.2773 38.035 15.9494 39.5187 16.0472 41.0858C16.0852 41.5854 16.1051 42.1687 16.1298 42.7861L16.1356 42.9442C15.035 41.3782 13.3961 40.2314 11.5039 39.7032C10.3515 39.3486 9.14906 39.166 7.93865 39.1618C7.69334 39.1687 7.46055 39.2671 7.28995 39.436L5.59803 41.1167C5.51257 41.2016 5.4455 41.3018 5.40047 41.4116C5.35544 41.5213 5.33343 41.6385 5.33569 41.7564C5.33795 41.8743 5.36436 41.9907 5.41357 42.0988C5.46277 42.2069 5.53376 42.3047 5.62241 42.3865C5.71107 42.4684 5.81568 42.5327 5.93029 42.5758C6.0449 42.619 6.16724 42.6401 6.29035 42.6379C6.41347 42.6357 6.53502 42.6103 6.6479 42.5632C6.76078 42.5161 6.86286 42.4481 6.94832 42.3632L8.35543 40.9649C9.56781 41.0218 13.4674 41.4557 14.9835 44.6548C14.7846 45.8636 14.1171 46.9561 13.1142 47.7143C12.1114 48.4725 10.8469 48.8406 9.57314 48.7452C8.2994 48.6498 7.11012 48.098 6.2425 47.1997C5.37488 46.3014 4.89275 45.1228 4.89241 43.8991C4.89309 43.7685 4.86385 43.6394 4.80678 43.5208C4.7497 43.4022 4.66617 43.297 4.56207 43.2127C4.45796 43.1284 4.3359 43.0669 4.20432 43.0326C4.07274 42.9984 3.93487 42.9923 3.80053 43.0146C3.80053 42.9355 3.80632 42.8565 3.80879 42.7838C3.82035 42.1672 3.84429 41.5838 3.8773 41.0835L3.87811 41.0858ZM3.00575 48.6071C3.26731 47.9118 3.44676 47.1907 3.54061 46.4571C4.05701 47.6387 4.91626 48.6536 6.01653 49.3818V50.4576C4.85705 50.1109 3.81679 49.4708 3.00575 48.6047V48.6071ZM8.53536 52.8867L7.66301 52.0962C7.813 51.8264 7.89123 51.5254 7.89079 51.2197V50.2632C9.23893 50.6643 10.6824 50.6643 12.0305 50.2632V51.2197C12.0297 51.5257 12.108 51.8271 12.2583 52.0971L11.386 52.8876C11.001 53.2378 10.4902 53.4328 9.9592 53.4322C9.42824 53.4316 8.91777 53.2355 8.53365 52.8844L8.53536 52.8867ZM22.927 35.8916V33.664C22.9272 33.5288 22.8953 33.3953 22.8337 33.2736C22.2361 32.098 21.9257 30.8074 21.9259 29.4999V27.5798C21.9281 25.7816 22.6749 24.0575 24.0026 22.7861C25.3303 21.5146 27.1303 20.7994 29.0078 20.7975H42.1038V29.4999C42.1041 30.8074 41.7937 32.098 41.196 33.2736C41.1347 33.3954 41.1028 33.5288 41.1027 33.664V36.2204C41.1078 37.4118 40.8551 38.5914 40.3605 39.6845C39.8659 40.7777 39.1402 41.7608 38.229 42.5719C37.9974 42.779 37.7575 42.9735 37.5093 43.1553L37.4928 43.1672C35.7524 44.4339 33.5909 45.0519 31.4103 44.9062C29.0668 44.7123 26.8875 43.6737 25.3126 42.0004C23.7376 40.327 22.8844 38.1434 22.9253 35.8908L22.927 35.8916ZM31.2857 46.6966C31.5333 46.7116 31.7809 46.7195 32.0235 46.7195C33.7882 46.7244 35.5275 46.3175 37.0909 45.5337V47.1733L32.0145 50.4972L26.9372 47.1733V45.4975C28.2788 46.1928 29.7618 46.6017 31.2841 46.6958L31.2857 46.6966ZM28.2057 53.9587C28.1989 53.9651 28.1906 53.97 28.1816 53.973C28.1726 53.9761 28.1629 53.9772 28.1534 53.9763C28.1439 53.9754 28.1346 53.9725 28.1264 53.9678C28.1182 53.9631 28.1112 53.9568 28.1059 53.9492L25.1908 49.7597L26.1284 48.815L30.5512 51.7113L28.2057 53.9587ZM35.9215 53.9492C35.9163 53.957 35.9092 53.9634 35.9009 53.9681C35.8926 53.9728 35.8832 53.9755 35.8736 53.976C35.8639 53.9776 35.854 53.9768 35.8447 53.9736C35.8355 53.9704 35.8271 53.965 35.8207 53.9579L33.4753 51.7113L37.8981 48.8159L38.8364 49.7597L35.9215 53.9492ZM47.9627 43.6588V41.9798C47.9629 41.8404 47.9289 41.7029 47.8636 41.5783L47.286 40.4716C47.0732 40.0628 46.9621 39.6123 46.9616 39.1554V39.1017C46.9626 38.067 47.3923 37.075 48.1562 36.3433C48.9201 35.6117 49.9558 35.2002 51.0361 35.1991H59.1241V38.9286C59.1233 39.5344 58.9761 40.1317 58.6942 40.674L58.2204 41.5806C58.1551 41.7052 58.1211 41.8428 58.1213 41.9822V43.9022C58.1214 44.5535 57.985 45.1981 57.72 45.7978C57.4551 46.3976 57.067 46.9402 56.5789 47.3936C56.0908 47.8469 55.5126 48.2017 54.8786 48.4369C54.2446 48.6722 53.5677 48.783 52.8881 48.7629C51.5385 48.6839 50.2728 48.109 49.3549 47.1581C48.4369 46.2072 47.9377 44.9536 47.961 43.6588H47.9627ZM52.827 50.5564C52.8988 50.5564 52.9714 50.5564 53.0432 50.5564C53.7428 50.5564 54.4384 50.4554 55.1065 50.2569V50.6181C55.1067 50.7945 55.1294 50.9703 55.1742 51.1414L53.0367 53.188L50.9091 51.1501C50.9488 50.9748 50.9681 50.7959 50.9668 50.6165V50.2379C51.5671 50.4289 52.1931 50.5359 52.8253 50.5556L52.827 50.5564Z" fill="white"/>
<path d="M58.1412 54.9103C57.8422 54.9103 57.5554 55.0241 57.344 55.2266C57.1326 55.4291 57.0138 55.7038 57.0138 55.9902V62.9194C57.0098 63.0638 57.0359 63.2073 57.0907 63.3418C57.1455 63.4763 57.228 63.5988 57.3331 63.7023C57.4382 63.8057 57.564 63.888 57.7028 63.9441C57.8417 64.0003 57.9909 64.0292 58.1416 64.0292C58.2923 64.0292 58.4415 64.0003 58.5803 63.9441C58.7192 63.888 58.8449 63.8057 58.9501 63.7023C59.0552 63.5988 59.1376 63.4763 59.1925 63.3418C59.2473 63.2073 59.2734 63.0638 59.2693 62.9194V55.9902C59.2693 55.8483 59.2402 55.7078 59.1835 55.5767C59.1268 55.4456 59.0437 55.3266 58.9389 55.2263C58.8341 55.1261 58.7097 55.0466 58.5729 54.9923C58.436 54.9381 58.2893 54.9102 58.1412 54.9103V54.9103Z" fill="#C8AC78"/>
<path d="M24.7706 29.5812C24.7697 29.5643 24.775 29.5476 24.7858 29.5341C24.7965 29.5206 24.812 29.5113 24.8293 29.5078C27.2523 29.1523 29.7071 29.0373 32.1547 29.1646C35.6721 29.3891 38.219 30.2342 39.7252 31.6776C39.9366 31.8802 40.2235 31.994 40.5226 31.9941C40.8217 31.9942 41.1085 31.8805 41.3201 31.678C41.5316 31.4755 41.6506 31.2007 41.6506 30.9143C41.6507 30.6278 41.532 30.353 41.3206 30.1504C37.0546 26.0653 28.1314 26.8463 24.4926 27.3711C23.9397 27.4486 23.4346 27.7148 23.0706 28.1209C22.7066 28.5269 22.5082 29.0453 22.5118 29.5804V32.0689C22.5198 32.3503 22.642 32.6177 22.8527 32.814C23.0633 33.0104 23.3456 33.1202 23.6396 33.1202C23.9335 33.1202 24.2159 33.0104 24.4265 32.814C24.6371 32.6177 24.7595 32.3503 24.7674 32.0689V29.5804L24.7706 29.5812Z" fill="#C8AC78"/>
<path d="M43.0472 57.2201C42.7482 57.2201 42.4614 57.3338 42.25 57.5363C42.0386 57.7388 41.9197 58.0135 41.9197 58.2999V62.9194C41.9197 63.2058 42.0386 63.4804 42.25 63.6829C42.4614 63.8854 42.7482 63.9993 43.0472 63.9993C43.3462 63.9993 43.6329 63.8854 43.8443 63.6829C44.0557 63.4804 44.1745 63.2058 44.1745 62.9194V58.2999C44.1745 58.0135 44.0557 57.7388 43.8443 57.5363C43.6329 57.3338 43.3462 57.2201 43.0472 57.2201V57.2201Z" fill="#C8AC78"/>
</g>
<defs>
<clipPath id="clip0">
<rect width="64" height="45" fill="white" transform="translate(0 19)"/>
</clipPath>
</defs>
</svg>
