<svg width="64" height="64" viewBox="0 0 64 64" fill="none" xmlns="http://www.w3.org/2000/svg">
<g clip-path="url(#clip0)">
<path d="M48.9124 6.39975H14.0885C13.7998 6.39975 13.5229 6.51215 13.3188 6.71224C13.1147 6.91232 13 7.18369 13 7.46665V52.2674C13 52.5504 13.1147 52.8217 13.3188 53.0218C13.5229 53.2219 13.7998 53.3343 14.0885 53.3343H48.9124C49.201 53.3343 49.4779 53.2219 49.682 53.0218C49.8862 52.8217 50.0009 52.5504 50.0009 52.2674V7.46665C50.0009 7.18369 49.8862 6.91232 49.682 6.71224C49.4779 6.51215 49.201 6.39975 48.9124 6.39975ZM47.8239 51.1997H15.1778V8.53272H47.8239V51.1997Z" fill="#C8AC78"/>
<path d="M36.9416 3.19988H26.0593C25.9138 3.19589 25.769 3.22052 25.6335 3.27232C25.4979 3.32412 25.3743 3.40204 25.27 3.50147C25.1657 3.60089 25.0827 3.71981 25.0261 3.85119C24.9695 3.98257 24.9403 4.12374 24.9403 4.26636C24.9403 4.40898 24.9695 4.55016 25.0261 4.68153C25.0827 4.81291 25.1657 4.93183 25.27 5.03126C25.3743 5.13069 25.4979 5.2086 25.6335 5.2604C25.769 5.31221 25.9138 5.33684 26.0593 5.33285H36.9416C37.2249 5.32508 37.4939 5.2093 37.6915 5.01015C37.8891 4.81099 37.9996 4.54415 37.9996 4.26636C37.9996 3.98857 37.8891 3.72173 37.6915 3.52258C37.4939 3.32342 37.2249 3.20765 36.9416 3.19988V3.19988Z" fill="white"/>
<path d="M44.5593 3.19988H43.4708C43.3253 3.19589 43.1806 3.22052 43.045 3.27232C42.9094 3.32412 42.7858 3.40204 42.6815 3.50147C42.5772 3.60089 42.4943 3.71981 42.4376 3.85119C42.381 3.98257 42.3519 4.12374 42.3519 4.26636C42.3519 4.40898 42.381 4.55016 42.4376 4.68153C42.4943 4.81291 42.5772 4.93183 42.6815 5.03126C42.7858 5.13069 42.9094 5.2086 43.045 5.2604C43.1806 5.31221 43.3253 5.33684 43.4708 5.33285H44.5593C44.7047 5.33684 44.8495 5.31221 44.9851 5.2604C45.1206 5.2086 45.2443 5.13069 45.3486 5.03126C45.4529 4.93183 45.5358 4.81291 45.5924 4.68153C45.6491 4.55016 45.6782 4.40898 45.6782 4.26636C45.6782 4.12374 45.6491 3.98257 45.5924 3.85119C45.5358 3.71981 45.4529 3.60089 45.3486 3.50147C45.2443 3.40204 45.1206 3.32412 44.9851 3.27232C44.8495 3.22052 44.7047 3.19589 44.5593 3.19988V3.19988Z" fill="white"/>
<path d="M32.851 54.4004H30.149C29.3531 54.4015 28.5902 54.7119 28.0274 55.2635C27.4647 55.815 27.148 56.5628 27.1469 57.3429V57.8584C27.148 58.6383 27.4646 59.3859 28.0272 59.9373C28.5898 60.4887 29.3525 60.799 30.1481 60.8001H32.8502C33.6459 60.7992 34.4089 60.4891 34.9717 59.9376C35.5344 59.3861 35.8511 58.6384 35.8522 57.8584V57.3429C35.8511 56.563 35.5346 55.8153 34.972 55.2638C34.4094 54.7122 33.6467 54.4017 32.851 54.4004ZM33.6761 57.8584C33.6759 58.0728 33.5889 58.2784 33.4342 58.43C33.2795 58.5817 33.0698 58.6669 32.851 58.6672H30.149C29.9301 58.6672 29.7201 58.582 29.5652 58.4303C29.4104 58.2787 29.3233 58.073 29.323 57.8584V57.3429C29.323 57.1282 29.4101 56.9223 29.5649 56.7705C29.7198 56.6186 29.9299 56.5333 30.149 56.5333H32.8502C33.0692 56.5333 33.2793 56.6186 33.4342 56.7705C33.5891 56.9223 33.6761 57.1282 33.6761 57.3429V57.8584Z" fill="white"/>
<path d="M46.0671 0H16.9337C15.8908 0.00132638 14.8911 0.407979 14.1537 1.13078C13.4162 1.85358 13.0014 2.83353 13 3.85572V60.1443C13.0014 61.1665 13.4162 62.1464 14.1537 62.8692C14.8911 63.592 15.8908 63.9987 16.9337 64H46.0663C47.109 63.9987 48.1087 63.5921 48.846 62.8695C49.5834 62.1469 49.9984 61.1672 50 60.1451V3.85572C49.9987 2.83367 49.5839 1.85385 48.8466 1.13107C48.1094 0.408298 47.1099 0.00154737 46.0671 0V0ZM47.8239 60.1443C47.8234 60.6009 47.6382 61.0387 47.3089 61.3617C46.9796 61.6846 46.533 61.8664 46.0671 61.867H16.9337C16.4679 61.8666 16.0212 61.6851 15.6917 61.3623C15.3622 61.0395 15.1768 60.6017 15.1761 60.1451V3.85572C15.1766 3.39896 15.3619 2.96103 15.6914 2.63804C16.0209 2.31506 16.4677 2.13341 16.9337 2.13297H46.0663C46.5323 2.13341 46.9791 2.31506 47.3086 2.63804C47.6381 2.96103 47.8234 3.39896 47.8239 3.85572V60.1443Z" fill="white"/>
</g>
<defs>
<clipPath id="clip0">
<rect width="37" height="64" fill="white" transform="translate(13)"/>
</clipPath>
</defs>
</svg>
