<svg width="64" height="64" viewBox="0 0 64 64" fill="none" xmlns="http://www.w3.org/2000/svg">
<path d="M37.9525 21.3719C38.2013 21.3719 38.4401 21.2744 38.616 21.1007C38.792 20.927 38.8908 20.6915 38.8908 20.4459C38.8908 20.2002 38.792 19.9646 38.616 19.7909C38.4401 19.6172 38.2013 19.5197 37.9525 19.5197H29.9739C29.8506 19.5196 29.7286 19.5434 29.6147 19.5899C29.5008 19.6364 29.3973 19.7047 29.3101 19.7907C29.223 19.8767 29.1539 19.9788 29.1068 20.0912C29.0597 20.2036 29.0354 20.3242 29.0355 20.4459V38.0742H22.9335V35.3829C22.9327 34.6324 22.6302 33.9129 22.0926 33.3822C21.555 32.8516 20.826 32.553 20.0657 32.5522H2.86701C2.10683 32.5532 1.3781 32.8519 0.840639 33.3825C0.303181 33.9132 0.000863888 34.6326 1.52588e-05 35.3829V42.6148C0.00107604 43.365 0.303448 44.0841 0.840883 44.6146C1.37832 45.1451 2.10697 45.4436 2.86701 45.4446H4.59921C4.84806 45.4446 5.08673 45.3471 5.2627 45.1734C5.43866 44.9997 5.53749 44.7641 5.53749 44.5184C5.53749 44.2728 5.43866 44.0373 5.2627 43.8636C5.08673 43.6899 4.84806 43.5924 4.59921 43.5924H2.86701C2.6044 43.5921 2.35261 43.489 2.16692 43.3058C1.98123 43.1225 1.87677 42.874 1.87656 42.6148V35.3829C1.87677 35.1237 1.98123 34.8751 2.16692 34.6918C2.35261 34.5085 2.6044 34.4054 2.86701 34.4052H20.0657C20.3283 34.4054 20.5801 34.5085 20.7658 34.6918C20.9515 34.8751 21.0559 35.1237 21.0561 35.3829V42.6148C21.0559 42.874 20.9515 43.1225 20.7658 43.3058C20.5801 43.489 20.3283 43.5921 20.0657 43.5924H8.93699C8.68814 43.5924 8.44947 43.6899 8.2735 43.8636C8.09754 44.0373 7.99871 44.2728 7.99871 44.5184C7.99871 44.7641 8.09754 44.9997 8.2735 45.1734C8.44947 45.3471 8.68814 45.4446 8.93699 45.4446H20.0657C20.8259 45.4438 21.5547 45.1454 22.0923 44.6149C22.63 44.0844 22.9324 43.3651 22.9335 42.6148V39.9234H29.0355V57.5518C29.0355 57.7975 29.1345 58.033 29.3104 58.2067C29.4864 58.3804 29.725 58.4779 29.9739 58.4779H37.9525C38.2014 58.4779 38.4403 58.3803 38.6163 58.2066C38.7924 58.0328 38.8912 57.7972 38.8912 57.5514C38.8912 57.3057 38.7924 57.07 38.6163 56.8962C38.4403 56.7224 38.2014 56.6249 37.9525 56.6249H30.9122V39.9226H37.9525C38.2013 39.9226 38.4401 39.825 38.616 39.6513C38.792 39.4776 38.8908 39.2421 38.8908 38.9964C38.8908 38.7508 38.792 38.5153 38.616 38.3416C38.4401 38.1679 38.2013 38.0702 37.9525 38.0702H30.9122V21.368L37.9525 21.3719Z" fill="#C8AC78"/>
<path d="M15.2227 38.3094C15.3459 38.3094 15.4679 38.2854 15.5818 38.2388C15.6956 38.1923 15.799 38.1241 15.8862 38.0381C15.9733 37.9521 16.0424 37.85 16.0896 37.7376C16.1367 37.6252 16.161 37.5048 16.161 37.3832C16.161 37.2616 16.1367 37.1411 16.0896 37.0287C16.0424 36.9164 15.9733 36.8143 15.8862 36.7283C15.799 36.6423 15.6956 36.5741 15.5818 36.5275C15.4679 36.481 15.3459 36.4571 15.2227 36.4571H7.7164C7.59318 36.4571 7.4712 36.481 7.35737 36.5275C7.24353 36.5741 7.14009 36.6423 7.05296 36.7283C6.96583 36.8143 6.89669 36.9164 6.84954 37.0287C6.80238 37.1411 6.77812 37.2616 6.77812 37.3832C6.77812 37.5048 6.80238 37.6252 6.84954 37.7376C6.89669 37.85 6.96583 37.9521 7.05296 38.0381C7.14009 38.1241 7.24353 38.1923 7.35737 38.2388C7.4712 38.2854 7.59318 38.3094 7.7164 38.3094H15.2227Z" fill="white"/>
<path d="M4.08517 40.9952C4.08507 41.1169 4.10924 41.2374 4.15634 41.3498C4.20345 41.4623 4.27253 41.5644 4.35967 41.6505C4.44681 41.7366 4.55028 41.8049 4.66417 41.8515C4.77806 41.8981 4.90016 41.9222 5.02345 41.9222H17.91C18.1589 41.9222 18.3976 41.8245 18.5735 41.6508C18.7495 41.4771 18.8484 41.2416 18.8484 40.996C18.8484 40.7503 18.7495 40.5148 18.5735 40.3411C18.3976 40.1674 18.1589 40.0698 17.91 40.0698H5.02345C4.9002 40.0697 4.77816 40.0936 4.66427 40.1401C4.55039 40.1866 4.44687 40.2548 4.35972 40.3408C4.27257 40.4269 4.20346 40.529 4.15634 40.6414C4.10923 40.7539 4.08507 40.8743 4.08517 40.996V40.9952Z" fill="white"/>
<path d="M61.1331 14H43.9335C43.1734 14.0008 42.4447 14.2992 41.9072 14.8298C41.3697 15.3603 41.0673 16.0796 41.0665 16.8299V24.0617C41.0673 24.812 41.3697 25.5313 41.9072 26.0618C42.4447 26.5923 43.1734 26.8908 43.9335 26.8917H61.1331C61.8932 26.8908 62.6219 26.5923 63.1594 26.0618C63.6969 25.5313 63.9992 24.812 64 24.0617V16.8299C63.9992 16.0796 63.6969 15.3603 63.1594 14.8298C62.6219 14.2992 61.8932 14.0008 61.1331 14ZM62.1235 24.0609C62.1235 24.3203 62.0191 24.569 61.8334 24.7525C61.6477 24.936 61.3958 25.0392 61.1331 25.0394H43.9335C43.6709 25.039 43.4192 24.9356 43.2337 24.7522C43.0481 24.5688 42.9439 24.3201 42.9439 24.0609V16.8291C42.9441 16.57 43.0484 16.3217 43.234 16.1384C43.4195 15.9551 43.671 15.8519 43.9335 15.8515H61.1331C61.3956 15.8519 61.6473 15.9551 61.8329 16.1383C62.0186 16.3215 62.123 16.5699 62.1235 16.8291V24.0609Z" fill="white"/>
<path d="M61.1331 32.5538H50.4133C50.1643 32.5538 49.9256 32.6514 49.7495 32.8252C49.5735 32.999 49.4746 33.2346 49.4746 33.4803C49.4746 33.7261 49.5735 33.9617 49.7495 34.1355C49.9256 34.3092 50.1643 34.4069 50.4133 34.4069H61.1331C61.3957 34.4071 61.6474 34.5101 61.8331 34.6934C62.0188 34.8767 62.1232 35.1253 62.1235 35.3845V42.6163C62.1232 42.8755 62.0188 43.124 61.8331 43.3073C61.6474 43.4906 61.3957 43.5937 61.1331 43.5939H43.9335C43.671 43.5935 43.4195 43.4904 43.234 43.3071C43.0484 43.1239 42.9441 42.8754 42.9439 42.6163V35.3868C42.9439 35.1277 43.0481 34.8791 43.2337 34.6958C43.4192 34.5125 43.671 34.4094 43.9335 34.4092H46.0899C46.3389 34.4092 46.5776 34.3116 46.7537 34.1379C46.9297 33.9641 47.0287 33.7285 47.0287 33.4827C47.0287 33.237 46.9297 33.0013 46.7537 32.8275C46.5776 32.6538 46.3389 32.5562 46.0899 32.5562H43.9335C43.1733 32.5572 42.4445 32.8558 41.9071 33.3864C41.3696 33.9171 41.0673 34.6365 41.0665 35.3868V42.6187C41.0675 43.369 41.3699 44.0881 41.9074 44.6186C42.4448 45.149 43.1735 45.4475 43.9335 45.4486H61.1331C61.8931 45.4475 62.6217 45.149 63.1591 44.6186C63.6965 44.0881 63.9989 43.369 64 42.6187V35.3868C63.9992 34.6365 63.6968 33.9171 63.1594 33.3864C62.6219 32.8558 61.8932 32.5572 61.1331 32.5562V32.5538Z" fill="white"/>
<path d="M61.1331 51.1084H43.9335C43.1734 51.1092 42.4447 51.4077 41.9072 51.9382C41.3697 52.4687 41.0673 53.188 41.0665 53.9383V61.1701C41.0675 61.9204 41.3699 62.6395 41.9074 63.17C42.4448 63.7004 43.1735 63.9989 43.9335 64H61.1331C61.8931 63.9989 62.6217 63.7004 63.1591 63.17C63.6965 62.6395 63.9989 61.9204 64 61.1701V53.9383C63.9992 53.188 63.6969 52.4687 63.1594 51.9382C62.6219 51.4077 61.8932 51.1092 61.1331 51.1084ZM62.1235 61.1701C62.123 61.4293 62.0186 61.6777 61.8329 61.8609C61.6473 62.0442 61.3956 62.1473 61.1331 62.1477H43.9335C43.671 62.1473 43.4195 62.0441 43.234 61.8608C43.0484 61.6776 42.9441 61.4292 42.9439 61.1701V53.9383C42.9439 53.6791 43.0481 53.4305 43.2337 53.247C43.4192 53.0636 43.6709 52.9603 43.9335 52.9598H61.1331C61.3957 52.9603 61.6475 53.0635 61.8332 53.2469C62.0189 53.4303 62.1232 53.679 62.1235 53.9383V61.1701Z" fill="white"/>
<path d="M56.2868 38.1194C56.5357 38.1194 56.7743 38.0218 56.9503 37.8481C57.1262 37.6744 57.2251 37.4388 57.2251 37.1932C57.2251 36.9476 57.1262 36.712 56.9503 36.5383C56.7743 36.3647 56.5357 36.2671 56.2868 36.2671H48.7805C48.5317 36.2671 48.293 36.3647 48.117 36.5383C47.9411 36.712 47.8422 36.9476 47.8422 37.1932C47.8422 37.4388 47.9411 37.6744 48.117 37.8481C48.293 38.0218 48.5317 38.1194 48.7805 38.1194H56.2868Z" fill="white"/>
<path d="M45.1516 40.8052C45.1516 41.0509 45.2505 41.2865 45.4264 41.4604C45.6024 41.6342 45.841 41.732 46.0899 41.7322H58.9765C59.2254 41.7322 59.4641 41.6345 59.6401 41.4608C59.816 41.2872 59.9149 41.0516 59.9149 40.806C59.9149 40.5604 59.816 40.3248 59.6401 40.1511C59.4641 39.9775 59.2254 39.8798 58.9765 39.8798H46.0899C45.9668 39.8797 45.8448 39.9036 45.731 39.9501C45.6171 39.9965 45.5137 40.0646 45.4265 40.1506C45.3394 40.2365 45.2703 40.3386 45.2231 40.4509C45.1759 40.5632 45.1516 40.6836 45.1516 40.8052V40.8052Z" fill="white"/>
<path d="M48.7805 19.5656H56.2868C56.5357 19.5656 56.7743 19.468 56.9503 19.2943C57.1262 19.1206 57.2251 18.8851 57.2251 18.6395C57.2251 18.3938 57.1262 18.1582 56.9503 17.9845C56.7743 17.8108 56.5357 17.7133 56.2868 17.7133H48.7805C48.5317 17.7133 48.293 17.8108 48.117 17.9845C47.9411 18.1582 47.8422 18.3938 47.8422 18.6395C47.8422 18.8851 47.9411 19.1206 48.117 19.2943C48.293 19.468 48.5317 19.5656 48.7805 19.5656V19.5656Z" fill="white"/>
<path d="M58.9765 21.3252H46.09C45.841 21.3252 45.6023 21.4229 45.4262 21.5966C45.2502 21.7704 45.1512 22.0061 45.1512 22.2518C45.1512 22.4975 45.2502 22.7332 45.4262 22.9069C45.6023 23.0807 45.841 23.1784 46.09 23.1784H58.9765C59.2255 23.1784 59.4642 23.0807 59.6403 22.9069C59.8163 22.7332 59.9153 22.4975 59.9153 22.2518C59.9153 22.0061 59.8163 21.7704 59.6403 21.5966C59.4642 21.4229 59.2255 21.3252 58.9765 21.3252Z" fill="white"/>
<path d="M48.7805 56.674H56.2868C56.5357 56.674 56.7743 56.5763 56.9503 56.4026C57.1262 56.229 57.2251 55.9934 57.2251 55.7478C57.2251 55.5022 57.1262 55.2666 56.9503 55.0929C56.7743 54.9193 56.5357 54.8216 56.2868 54.8216H48.7805C48.5317 54.8216 48.293 54.9193 48.117 55.0929C47.9411 55.2666 47.8422 55.5022 47.8422 55.7478C47.8422 55.9934 47.9411 56.229 48.117 56.4026C48.293 56.5763 48.5317 56.674 48.7805 56.674Z" fill="white"/>
<path d="M58.9765 58.4336H46.0899C45.8411 58.4336 45.6025 58.5312 45.4265 58.7049C45.2506 58.8786 45.1516 59.1142 45.1516 59.3598C45.1516 59.6054 45.2506 59.841 45.4265 60.0147C45.6025 60.1884 45.8411 60.2859 46.0899 60.2859H58.9765C59.2254 60.2859 59.4641 60.1884 59.6401 60.0147C59.816 59.841 59.9149 59.6054 59.9149 59.3598C59.9149 59.1142 59.816 58.8786 59.6401 58.7049C59.4641 58.5312 59.2254 58.4336 58.9765 58.4336V58.4336Z" fill="white"/>
</svg>
