<svg id="Grupo_4" data-name="Grupo 4" xmlns="http://www.w3.org/2000/svg" width="79.805" height="63.165" viewBox="0 0 79.805 63.165">
  <path id="Caminho_22" data-name="Caminho 22" d="M1039.564,1398.35a1.17,1.17,0,1,0,0-2.34h-9.949a1.169,1.169,0,0,0-1.17,1.17v22.27h-7.609v-3.4a3.58,3.58,0,0,0-3.576-3.576H995.814a3.58,3.58,0,0,0-3.575,3.576v9.136a3.58,3.58,0,0,0,3.575,3.575h2.16a1.17,1.17,0,1,0,0-2.34h-2.16a1.236,1.236,0,0,1-1.235-1.235v-9.136a1.236,1.236,0,0,1,1.235-1.235h21.446a1.236,1.236,0,0,1,1.235,1.235v9.136a1.236,1.236,0,0,1-1.235,1.235h-13.877a1.17,1.17,0,0,0,0,2.34h13.877a3.58,3.58,0,0,0,3.576-3.575v-3.4h7.609v22.27a1.17,1.17,0,0,0,1.17,1.17h9.949a1.17,1.17,0,0,0,0-2.341h-8.779v-21.1h8.779a1.17,1.17,0,1,0,0-2.34h-8.779v-21.1Zm0,0" transform="translate(-992.239 -1389.037)" fill="#c8ac78"/>
  <path id="Caminho_23" data-name="Caminho 23" d="M1015.4,1430.333a1.17,1.17,0,1,0,0-2.34h-9.36a1.17,1.17,0,1,0,0,2.34Zm0,0" transform="translate(-996.418 -1399.623)" fill="#fff"/>
  <path id="Caminho_24" data-name="Caminho 24" d="M999.853,1435.983a1.17,1.17,0,0,0,1.17,1.171h16.069a1.17,1.17,0,0,0,0-2.34h-16.069a1.169,1.169,0,0,0-1.17,1.17Zm0,0" transform="translate(-994.759 -1401.88)" fill="#fff"/>
  <path id="Caminho_25" data-name="Caminho 25" d="M1093.8,1385.588h-21.447a3.579,3.579,0,0,0-3.575,3.575v9.136a3.579,3.579,0,0,0,3.575,3.575H1093.8a3.579,3.579,0,0,0,3.575-3.575v-9.136a3.579,3.579,0,0,0-3.575-3.575Zm1.235,12.71a1.236,1.236,0,0,1-1.235,1.236h-21.447a1.236,1.236,0,0,1-1.234-1.236v-9.136a1.236,1.236,0,0,1,1.234-1.235H1093.8a1.237,1.237,0,0,1,1.235,1.235Zm0,0" transform="translate(-1017.57 -1385.588)" fill="#fff"/>
  <path id="Caminho_26" data-name="Caminho 26" d="M1093.8,1420.621h-13.367a1.17,1.17,0,0,0,0,2.341H1093.8a1.236,1.236,0,0,1,1.235,1.235v9.136a1.236,1.236,0,0,1-1.235,1.235h-21.447a1.236,1.236,0,0,1-1.234-1.235V1424.2a1.235,1.235,0,0,1,1.234-1.235h2.689a1.17,1.17,0,0,0,0-2.341h-2.689a3.58,3.58,0,0,0-3.575,3.576v9.136a3.58,3.58,0,0,0,3.575,3.575H1093.8a3.58,3.58,0,0,0,3.575-3.575V1424.2a3.58,3.58,0,0,0-3.575-3.576Zm0,0" transform="translate(-1017.57 -1397.182)" fill="#fff"/>
  <path id="Caminho_27" data-name="Caminho 27" d="M1093.8,1455.657h-21.447a3.579,3.579,0,0,0-3.575,3.575v9.136a3.58,3.58,0,0,0,3.575,3.575H1093.8a3.58,3.58,0,0,0,3.575-3.575v-9.136a3.579,3.579,0,0,0-3.575-3.575Zm1.235,12.711a1.237,1.237,0,0,1-1.235,1.235h-21.447a1.236,1.236,0,0,1-1.234-1.235v-9.136a1.236,1.236,0,0,1,1.234-1.236H1093.8a1.237,1.237,0,0,1,1.235,1.236Zm0,0" transform="translate(-1017.57 -1408.778)" fill="#fff"/>
  <path id="Caminho_28" data-name="Caminho 28" d="M1091.936,1429.974a1.17,1.17,0,0,0,0-2.34h-9.36a1.17,1.17,0,1,0,0,2.34Zm0,0" transform="translate(-1021.749 -1399.504)" fill="#fff"/>
  <path id="Caminho_29" data-name="Caminho 29" d="M1076.392,1435.624a1.171,1.171,0,0,0,1.17,1.171h16.069a1.17,1.17,0,0,0,0-2.34h-16.069a1.169,1.169,0,0,0-1.17,1.169Zm0,0" transform="translate(-1020.09 -1401.761)" fill="#fff"/>
  <path id="Caminho_30" data-name="Caminho 30" d="M1082.576,1394.939h9.36a1.17,1.17,0,1,0,0-2.34h-9.36a1.17,1.17,0,1,0,0,2.34Zm0,0" transform="translate(-1021.749 -1387.908)" fill="#fff"/>
  <path id="Caminho_31" data-name="Caminho 31" d="M1093.631,1399.419h-16.069a1.17,1.17,0,0,0,0,2.341h16.069a1.17,1.17,0,0,0,0-2.341Zm0,0" transform="translate(-1020.09 -1390.165)" fill="#fff"/>
  <path id="Caminho_32" data-name="Caminho 32" d="M1082.576,1465.009h9.36a1.17,1.17,0,0,0,0-2.34h-9.36a1.17,1.17,0,1,0,0,2.34Zm0,0" transform="translate(-1021.749 -1411.099)" fill="#fff"/>
  <path id="Caminho_33" data-name="Caminho 33" d="M1093.631,1469.489h-16.069a1.17,1.17,0,0,0,0,2.34h16.069a1.17,1.17,0,0,0,0-2.34Zm0,0" transform="translate(-1020.09 -1413.356)" fill="#fff"/>
</svg>
