<svg width="64" height="64" viewBox="0 0 64 64" fill="none" xmlns="http://www.w3.org/2000/svg">
<path d="M62.1662 57.4862H57.3844V18.6685C57.384 18.2351 57.2029 17.8197 56.8809 17.5133C56.5589 17.2069 56.1224 17.0345 55.667 17.0341H49.8147C49.3593 17.0345 48.9227 17.2068 48.6006 17.5132C48.2785 17.8196 48.0971 18.2351 48.0964 18.6685V23.5152C48.0964 23.7635 48.2001 24.0017 48.3846 24.1772C48.5691 24.3528 48.8193 24.4514 49.0802 24.4514C49.3411 24.4514 49.5914 24.3528 49.7759 24.1772C49.9604 24.0017 50.064 23.7635 50.064 23.5152V18.9073H55.4161V57.4869H50.064V27.8726C50.064 27.6243 49.9604 27.3862 49.7759 27.2107C49.5914 27.0351 49.3411 26.9365 49.0802 26.9365C48.8193 26.9365 48.5691 27.0351 48.3846 27.2107C48.2001 27.3862 48.0964 27.6243 48.0964 27.8726V57.4869H43.5945V28.9259C43.5938 28.4924 43.4126 28.077 43.0904 27.7706C42.7683 27.4642 42.3316 27.2918 41.8762 27.2914H36.0248C35.5694 27.2918 35.1327 27.4642 34.8105 27.7706C34.4884 28.077 34.3072 28.4924 34.3065 28.9259V57.4869H29.8045V39.235C29.8041 38.8015 29.623 38.3858 29.3008 38.0793C28.9787 37.7727 28.5418 37.6002 28.0862 37.5998H22.2341C21.7785 37.6002 21.3416 37.7727 21.0195 38.0793C20.6974 38.3858 20.5162 38.8015 20.5158 39.235V57.4869H16.0138V49.5183C16.0134 49.0847 15.8321 48.669 15.51 48.3624C15.1878 48.0558 14.7511 47.8835 14.2955 47.883H8.44414C7.98856 47.8835 7.55171 48.0558 7.22957 48.3624C6.90742 48.669 6.72628 49.0847 6.72584 49.5183V51.4433C6.72584 51.6916 6.82948 51.9297 7.01397 52.1052C7.19846 52.2808 7.44871 52.3794 7.70961 52.3794C7.97052 52.3794 8.22077 52.2808 8.40526 52.1052C8.58975 51.9297 8.69339 51.6916 8.69339 51.4433V49.7555H14.0454V57.4869H8.69339V55.7951C8.69339 55.5469 8.58975 55.3088 8.40526 55.1332C8.22077 54.9577 7.97052 54.859 7.70961 54.859C7.44871 54.859 7.19846 54.9577 7.01397 55.1332C6.82948 55.3088 6.72584 55.5469 6.72584 55.7951V57.483H1.94319C1.45653 57.4834 0.989923 57.6676 0.645801 57.9951C0.301678 58.3226 0.10816 58.7666 0.107723 59.2297V62.1679C0.10816 62.631 0.301678 63.0751 0.645801 63.4026C0.989923 63.73 1.45653 63.9142 1.94319 63.9146H62.1645C62.6512 63.9142 63.1178 63.73 63.4619 63.4026C63.806 63.0751 63.9996 62.631 64 62.1679V59.2297C63.9996 58.7666 63.806 58.3226 63.4619 57.9951C63.1178 57.6676 62.6512 57.4834 62.1645 57.483L62.1662 57.4862ZM36.2749 29.1631H41.6269V57.4862H36.2757L36.2749 29.1631ZM22.4841 39.4722H27.837V57.4862H22.4841V39.4722ZM62.0342 62.0454H2.07768V59.3586H62.0342V62.0454Z" fill="white"/>
<path d="M2.80228 41.6353C3.11809 41.6351 3.43159 41.5835 3.72913 41.4828C8.82758 39.6838 13.7092 37.3711 18.2908 34.5839C24.117 31.091 29.585 27.0843 34.6226 22.6167C38.842 18.8819 42.798 14.8862 46.4648 10.6559L48.0816 13.2886C48.233 13.536 48.465 13.7297 48.7426 13.8402C49.0201 13.9507 49.328 13.9721 49.6194 13.901C49.9109 13.8299 50.1699 13.6704 50.3574 13.4465C50.5449 13.2225 50.6505 12.9464 50.6582 12.6602L50.9751 1.35051C50.9812 1.12413 50.926 0.900004 50.8146 0.699907C50.7032 0.49981 50.5394 0.330508 50.3391 0.208264C50.1388 0.0860212 49.9086 0.0150205 49.671 0.00213525C49.4334 -0.01075 49.1965 0.0348397 48.9828 0.134633V0.134633L38.3158 5.13379C38.0461 5.26007 37.8269 5.46653 37.6916 5.72198C37.5563 5.97743 37.5122 6.26791 37.5659 6.54938C37.6197 6.83084 37.7684 7.08794 37.9895 7.28176C38.2106 7.47558 38.492 7.59555 38.7912 7.62345L41.5972 7.88653C38.2603 11.6868 34.677 15.285 30.8683 18.6599C26.0996 22.896 20.9237 26.697 15.4088 30.0128C11.147 32.6121 6.60782 34.7743 1.86727 36.4633C1.24425 36.6724 0.719042 37.0846 0.384713 37.6269C0.0503843 38.1691 -0.0715142 38.8065 0.0405694 39.426C0.152653 40.0456 0.49152 40.6074 0.99714 41.0121C1.50276 41.4167 2.14256 41.638 2.80319 41.6368L2.80228 41.6353ZM2.04801 38.6374C2.09457 38.5422 2.16065 38.4569 2.24245 38.3865C2.32424 38.3161 2.42009 38.262 2.52423 38.2274C7.39967 36.4919 12.0683 34.2698 16.452 31.5986C22.0714 28.2201 27.3456 24.3476 32.2053 20.032C36.5302 16.1976 40.5709 12.0827 44.2984 7.71693C44.4112 7.58574 44.4844 7.42786 44.5103 7.26019C44.5361 7.09251 44.5137 6.92129 44.4453 6.7648C44.3769 6.60832 44.2652 6.47243 44.122 6.37162C43.9789 6.27082 43.8096 6.20889 43.6324 6.19244L41.0253 5.94824L48.9828 2.21913L48.7452 10.6575L47.4511 8.54787C47.3708 8.4171 47.2583 8.30685 47.1234 8.2265C46.9885 8.14615 46.8351 8.09811 46.6764 8.08652C46.5177 8.07494 46.3584 8.10013 46.2122 8.15996C46.0659 8.2198 45.9371 8.31246 45.8368 8.43004C41.9765 12.9787 37.782 17.261 33.2848 21.2447C28.338 25.6319 22.9689 29.567 17.2484 32.9982C12.7881 35.7129 8.03571 37.9661 3.07218 39.7196C2.86657 39.7886 2.64067 39.7779 2.44333 39.6897C2.24599 39.6015 2.09307 39.443 2.01748 39.2484C1.97989 39.1506 1.96318 39.0467 1.96842 38.9427C1.97366 38.8387 2.00075 38.7367 2.04801 38.6428V38.6374Z" fill="#C8AC78"/>
</svg>
